# xmcd
#
# Track frame offsets: 
#        150
#        7085
#        21288
#        46519
#        67230
#        85253
#        112352
#        131995
#        165033
#        183034
#        193337
#        224604
#        245430
#        268593
#        302958
#        319905
#        343546
#
# Disc length: 4760 seconds
#
# Revision: 0
# Processed by: cddbd v1.5.2PL0 Copyright (c) Steve Scherf et al.
# Submitted via: ExactAudioCopy v0.99pb4
#
DISCID=fe129611
DTITLE=Jorma Kaukonen - 28 Jan 2002, Live At The Turning Point, Piermo
DTITLE=nt, NY, Disk 1
DYEAR=1900
DGENRE=Blues
TTITLE0=(Harvey Coleman introduction to set #1)
TTITLE1=Trouble In Mind
TTITLE2=That'll Never Happen No More
TTITLE3=Waiting For A Train
TTITLE4=Blue Railroad Train
TTITLE5=Death Don't Have No Mercy
TTITLE6=Do Not Go Gentle
TTITLE7=Serpent Of Dreams
TTITLE8=Living In The Moment
TTITLE9=Embryonic Journey
TTITLE10=Trial By Fire
TTITLE11=Third Week In The Chelsea
TTITLE12=Genesis
TTITLE13=Ice Age
TTITLE14=What Are They Doing In Heaven Today
TTITLE15=Follow The Drinking Gourd
TTITLE16=Let Us Get Together Right Down Here
EXTD=
EXTT0=
EXTT1=
EXTT2=
EXTT3=
EXTT4=
EXTT5=
EXTT6=
EXTT7=
EXTT8=
EXTT9=
EXTT10=
EXTT11=
EXTT12=
EXTT13=
EXTT14=
EXTT15=
EXTT16=
PLAYORDER=
